PathFileType	4	(X/Y/Z)	C:/Users/beibeiliu/ov580/test_trc/User2\sequence.35_training_dense_left.trc
DataRate	CameraRate	NumFrames	NumMarkers	Units	OrigDataRate	OrigDataStartFrame	OrigNumFrames
120	120	20	19	mm	120	73	289
Frame#	Time	ThumbCMC			ThumbMCP			ThumbIP			ThumbTip			IndexMCP			IndexPIP			IndexTip			MiddleMCP			MiddlePIP			MiddleTip			RingMCP			RingPIP			RingTip			PinkyMCP			PinkyPIP			PinkyTip			BackHand1			BackHand2			BackHand3	
		X0	Y0	Z0	X1	Y1	Z1	X2	Y2	Z2	X3	Y3	Z3	X4	Y4	Z4	X5	Y5	Z5	X6	Y6	Z6	X7	Y7	Z7	X8	Y8	Z8	X9	Y9	Z9	X10	Y10	Z10	X11	Y11	Z11	X12	Y12	Z12	X13	Y13	Z13	X14	Y14	Z14	X15	Y15	Z15	X16	Y16	Z16	X17	Y17	Z17	X18	Y18	Z18	
72	0.6	-179.836	-32.8459	80.8567	-163.183	-26.9057	53.9336	-144.294	-30.4609	22.7468	-127.718	-45.0521	6.05825	-156.154	-87.5713	12.2537	-125.253	-93.5719	7.01032	-112.554	-75.3903	35.3335	-151.918	-110.193	14.8485	-115.946	-110.316	17.9319	-113.622	-88.966	50.1159	-149.645	-125.722	29.8919	-117.712	-122.13	27.6801	-116.146	-98.2506	57.6319	-152.15	-131.424	53.1419	-119.024	-131.352	46.2092	-111.962	-109.091	72.3163	-192.503	-107.956	76.4213	-208.308	-92.1901	103.157	-199.91	-68.7111	73.3041	
73	0.608333	-180.411	-35.311	80.931	-164.922	-32.4665	51.8694	-145.802	-35.0133	19.8834	-129.698	-37.417	2.52801	-157.21	-86.3568	12.6204	-123.84	-91.4923	5.55122	-114.944	-75.6733	39.1091	-152.575	-107.865	15.571	-117.836	-111.417	16.1183	-117.015	-87.4815	52.7731	-150.717	-124.219	30.7363	-117.287	-120.497	30.0588	-119.352	-99.557	60.4135	-149.365	-134.455	50.9217	-116.657	-131.918	49.4165	-118.533	-106.111	72.3961	-190.333	-105.835	73.2906	-205.199	-98.1567	101.353	-198.871	-70.6802	71.5015	
74	0.616667	-180.093	-38.6443	79.643	-165.673	-29.3958	50.1196	-147.399	-35.055	18.3489	-133.184	-33.7533	0.0701966	-155.968	-88.354	12.7859	-124.373	-94.3219	7.77278	-114.638	-73.4942	36.6317	-150.616	-109.953	14.0404	-116.581	-110.465	18.2924	-115.89	-86.4893	49.9863	-150.569	-123.549	31.1328	-115.154	-122.723	32.4719	-118.459	-102.25	58.0884	-149.582	-136.956	53.665	-119.677	-131.559	47.7715	-119.086	-107.787	71.4885	-189.672	-108.575	78.7781	-207.437	-93.28	101.23	-199.444	-69.4264	71.7616	
75	0.625	-180.502	-35.6823	77.2452	-165.15	-31.2267	50.4591	-150.227	-31.2008	19.8795	-134.546	-32.8128	0.114021	-156.704	-90.0426	13.1849	-123.06	-93.4252	9.92532	-115	-71.9462	36.1694	-151.558	-108.655	14.9561	-115.834	-109.984	19.0769	-120.553	-85.2145	53.5491	-147.894	-127.009	31.5406	-117.015	-120.764	29.8686	-122.776	-99.7063	62.9088	-150.358	-133.755	54.4487	-117.922	-132.869	48.8769	-119.348	-106.373	70.9674	-189.11	-106.184	71.8471	-207.213	-92.271	102.668	-201.491	-70.4771	74.2505	
76	0.633333	-180.555	-35.524	74.9007	-166.506	-28.6859	50.3123	-150.284	-34.2718	20.1337	-136.228	-32.2007	-1.96611	-158.338	-83.7018	10.9452	-123.63	-89.291	5.25378	-116.158	-73.8037	36.3533	-150.079	-108.53	13.7755	-115.107	-108.743	19.9712	-118.536	-84.5693	51.5283	-149.491	-122.9	29.6836	-115.569	-121.843	33.0611	-120.94	-101.278	60.4323	-149.977	-136.361	52.7777	-118.369	-131.87	47.8986	-119.492	-104.881	73.6677	-190.29	-105.078	76.517	-206.256	-97.804	100.687	-200.781	-71.9327	70.21	
77	0.641667	-181.223	-37.7644	79.2889	-166.941	-31.8346	50.9599	-150.492	-30.9809	19.4122	-136.86	-33.7505	-0.0113674	-158.606	-86.2117	12.406	-124.487	-89.8878	5.9968	-116.968	-72.0303	38.1763	-152.238	-105.957	13.9703	-117.38	-106.004	16.6635	-120.271	-86.5061	52.4899	-148.244	-124.281	29.9023	-116.552	-120.907	33.7004	-122.821	-98.7017	61.8786	-150.506	-134.144	50.4855	-118.118	-128.384	47.4867	-120.451	-106.479	68.7461	-192.623	-107.838	74.36	-206.329	-95.7381	102.589	-201.6	-72.1566	71.0335	
78	0.65	-182.422	-33.5471	78.6687	-167.717	-31.8437	49.2634	-151.206	-33.171	20.9385	-136.505	-40.9963	1.27182	-157.373	-85.6266	11.1393	-126.725	-88.6981	3.79393	-116.474	-72.6634	34.4507	-154.667	-108.704	17.879	-115.71	-104.919	18.8831	-118.743	-83.443	50.0125	-151.762	-123.181	31.5379	-117.239	-122.531	31.9	-119.241	-100.003	58.0412	-152.166	-132.265	54.8505	-118	-127.161	47.6026	-118.675	-105.732	70.3271	-191.258	-103.47	76.8711	-205.434	-94.6385	101.467	-200.655	-67.8544	72.2501	
79	0.658333	-182	-35.8855	78.6752	-168.689	-29.0357	50.4584	-151.259	-31.3396	18.9982	-135.309	-44.2963	1.54518	-159.083	-85.7963	13.644	-125.175	-90.0273	8.06733	-115.271	-72.0681	33.6294	-153.98	-108.901	16.5687	-119.362	-106.524	14.1826	-117.678	-87.0631	49.5617	-149.542	-123.659	27.3225	-118.942	-122.515	30.4043	-119.021	-98.5802	56.2805	-152.245	-132.999	52.9106	-119.913	-131.436	45.6446	-116.844	-107.907	68.1315	-191.067	-105.584	78.2088	-207.619	-94.3084	99.8307	-202.463	-69.2287	71.8184	
80	0.666667	-182.515	-36.5437	79.9375	-170.143	-24.076	52.2765	-151.971	-34.2081	22.362	-134.449	-48.8464	8.53379	-158.4	-86.9267	10.8294	-125.911	-90.8333	8.07117	-116.404	-69.0248	34.1766	-154.942	-108.365	16.4093	-118.132	-108.249	15.7867	-116.182	-85.6784	46.8855	-152.672	-120.741	29.5314	-122.509	-120.32	25.5135	-120.637	-96.0899	55.6823	-151.868	-136.091	51.7256	-123.429	-128.634	43.2558	-114.346	-108.42	67.1382	-191.771	-108.789	73.4269	-206.896	-91.6412	100.933	-202.557	-67.8073	73.3582	
81	0.675	-184.671	-31.4885	79.8957	-170.83	-24.4091	50.9103	-152.025	-32.7505	21.9347	-134.038	-52.7202	12.4802	-159.933	-84.1446	12.9464	-129.482	-92.5381	6.68311	-116.641	-72.9575	36.4456	-155.398	-104.677	14.2215	-119.224	-104.968	12.4047	-115.378	-87.4087	49.5019	-153.386	-122.216	30.5487	-122.498	-123.477	26.2811	-119.577	-96.1109	56.064	-152.663	-130.855	49.2404	-123.016	-128.232	41.85	-112.165	-109.245	68.2171	-192.274	-107.162	76.2255	-206.446	-96.1049	102.246	-201.639	-68.1485	73.1758	
82	0.683333	-185.651	-32.7077	80.171	-172.775	-23.5201	54.8725	-151.13	-34.5837	23.6105	-136.87	-58.3642	19.3792	-160.657	-83.2324	11.3063	-129.217	-89.8273	4.78476	-115.886	-74.646	35.3592	-157.958	-104.392	16.8355	-118.217	-105.056	14.7631	-115.731	-85.9538	49.5767	-153.678	-121.85	28.8083	-122.592	-123.335	26.7537	-118.486	-96.6553	53.2163	-155.452	-130.53	53.9241	-123.23	-131.064	41.7584	-112.255	-111.148	64.5931	-192.317	-104.137	71.8916	-208.819	-92.7599	100.445	-204.312	-68.3978	74.8682	
83	0.691667	-185.828	-33.665	83.9808	-173.246	-21.5893	52.0803	-152.742	-35.2245	26.1374	-136.669	-60.7266	21.9738	-161.047	-81.7845	12.4751	-128.932	-90.0983	5.9687	-114.755	-72.8442	33.977	-155.759	-107.886	14.5792	-119.806	-108.264	15.3286	-114.9	-88.1635	47.961	-154.839	-121.018	29.4677	-122.885	-122.511	25.5505	-117.993	-99.3071	56.1256	-154.832	-132.925	53.5648	-123.269	-133.254	42.9082	-113.189	-107.677	63.5053	-191.491	-106.917	74.2412	-207.623	-96.1538	102.723	-203.577	-68.1269	72.9716	
84	0.7	-187.104	-33.8202	79.466	-174.38	-23.5961	50.1592	-153.355	-33.3933	21.7367	-137.296	-61.2891	22.9285	-161.857	-82.3106	12.7193	-127.009	-90.1671	8.58818	-113.964	-71.817	32.456	-154.992	-104.098	13.1599	-120.535	-108.429	13.4047	-114.201	-84.4547	47.193	-153.911	-122.891	28.6787	-120.95	-118.534	26.2838	-119.253	-96.8077	55.4661	-155.055	-130.605	49.3739	-122.907	-131.998	42.5725	-112.861	-107.408	61.83	-193.663	-108.392	73.3368	-208.55	-93.8475	103.606	-204.124	-67.2601	72.4548	
85	0.708333	-187.865	-33.0487	80.8786	-175.846	-26.5389	50.9017	-154.655	-37.1857	25.8433	-138.969	-63.3899	23.7198	-160.261	-85.3512	12.5084	-131.277	-91.2289	6.06825	-115.312	-72.8069	33.8299	-157.227	-104.387	14.6018	-118.796	-104.272	14.0333	-114.207	-84.7879	45.7676	-153.425	-124.86	29.3165	-121.979	-118.17	24.5569	-119.241	-98.3676	57.2418	-153.455	-135.277	49.6414	-123.183	-130.107	42.0849	-111.628	-106.452	67.2751	-192.775	-107.89	76.5681	-207.973	-94.626	99.7083	-204.898	-66.7705	75.039	
86	0.716667	-189.462	-35.916	81.2062	-178.033	-26.6283	49.0079	-157.03	-34.7155	22.664	-139.848	-66.9947	22.8439	-161.379	-86.7072	14.433	-128.2	-89.1461	4.5145	-115.759	-69.9272	34.7359	-157.314	-108.716	18.1496	-121.477	-107.012	12.8589	-115.809	-83.3643	49.7666	-152.264	-122.51	29.6293	-119.333	-118.693	28.5027	-117.491	-98.6719	54.9955	-153.065	-131.322	51.406	-121.402	-124.903	42.7362	-111.863	-107.309	66.7827	-191.783	-107.952	78.748	-208.782	-95.6457	99.0369	-206.345	-68.5972	72.7437	
87	0.725	-191.778	-36.1163	79.2903	-181.11	-27.3469	46.3118	-159.888	-41.0254	23.1378	-140.803	-64.8496	18.5796	-160.814	-89.4204	11.962	-129.608	-92.0108	5.58135	-116.719	-70.286	33.7189	-155.837	-108.242	14.4501	-119.841	-105.145	11.8321	-114.641	-84.1844	44.4657	-151.375	-126.507	31.8296	-120.399	-119.22	26.4516	-119.093	-95.79	55.7649	-151.368	-131.849	53.4873	-117.838	-127.171	45.4652	-112.439	-106.367	67.8229	-192.572	-110.834	77.8592	-209.219	-97.5672	104.684	-206.888	-72.3526	73.1284	
88	0.733333	-195.021	-39.3531	75.6032	-185.627	-31.527	46.1905	-162.932	-42.7131	15.648	-143.501	-68.1812	20.8229	-162.789	-91.1919	14.8002	-127.694	-90.6907	5.95602	-117.743	-72.5358	32.6273	-153.239	-114.297	16.4827	-117.855	-107.128	15.6551	-114.804	-82.574	43.2252	-150.005	-127.766	35.6806	-120.408	-120.43	27.4065	-117.755	-96.5825	54.8959	-149.412	-132.418	54.9752	-119.04	-126.686	45.4438	-110.174	-105.791	67.9288	-192.436	-110.236	78.9506	-208.356	-101.329	103.891	-205.518	-75.7873	69.4024	
89	0.741667	-197.9	-43.0428	74.5432	-190.024	-35.976	44.4201	-166.888	-46.9695	17.8941	-146.498	-65.1199	16.6115	-162.647	-93.8919	14.295	-129.539	-91.9429	6.50263	-120.578	-66.1966	30.2674	-152.934	-115.682	17.1338	-118.518	-104.744	13.6801	-117.08	-80.7048	44.6881	-148.238	-126.941	33.665	-117.073	-120.374	28.7849	-118.998	-92.9339	52.6882	-146.361	-134.445	59.925	-115.639	-124.16	47.0857	-113.18	-97.8232	67.1521	-188.828	-114.805	81.1567	-207.304	-104.77	105.986	-208.051	-79.8405	69.7348	
90	0.75	-204.199	-43.1548	73.2469	-193.471	-40.1625	42.9189	-169.66	-48.672	12.1951	-147.832	-69.7366	17.2315	-163.97	-97.453	15.8477	-132.195	-95.4894	4.58682	-123.815	-67.0893	30.3769	-154.329	-114.808	20.9447	-119.219	-107.175	13.6608	-120.441	-77.5871	44.6045	-147.476	-126.065	36.4183	-115.198	-117.32	29.1202	-120.138	-89.6439	57.5747	-140.078	-134.697	58.4016	-114.558	-121.586	46.311	-111.279	-95.5849	64.0825	-187.493	-112.044	79.5138	-203.128	-106.919	105.151	-210.865	-82.2859	69.8292	
91	0.758333	-209.5	-48.5102	69.6776	-201.158	-43.7318	37.249	-176.932	-51.309	10.9636	-151.967	-68.5294	13.6087	-161.024	-99.6904	10.5943	-131.624	-94.6285	5.48904	-127.05	-65.8099	27.0368	-153.265	-115.161	20.4865	-116.386	-100.668	14.8839	-122.826	-74.2251	43.4592	-139.748	-127.977	34.4444	-112.302	-115.912	31.7567	-118.583	-88.0235	55.4206	-139.291	-129.325	63.3593	-109.123	-118.182	49.8127	-109.024	-88.9039	67.2734	-185.032	-115.63	79.5767	-203.145	-108.663	103.55	-207.847	-88.526	69.5232	
